<svg width="251" height="394" viewBox="0 0 251 394" fill="none" xmlns="http://www.w3.org/2000/svg">
<path d="M-6 103.741V-9C-6 -10.1046 -5.10457 -11 -4 -11H256C257.105 -11 258 -10.1046 258 -9V109.577C258 111.091 256.347 112.053 254.915 111.56C235.944 105.033 229.291 139.165 227.282 154.49C227.019 156.5 224.111 156.969 223.157 155.181C198.558 109.063 212.924 163.965 179.021 155.141C146.35 146.638 163.379 226.826 110.806 173.301C110.318 172.805 110.088 172.048 110.26 171.375L135.738 71.5137C136.095 70.1168 134.901 68.8131 133.478 69.0454L80.3191 77.7268C80.2125 77.7442 80.1105 77.7528 80.0025 77.7534C72.7136 77.7924 54.3917 80.5599 42.6025 94.5294C23.91 116.679 0.120867 113.754 -5.72678 104.72C-5.91528 104.429 -6 104.088 -6 103.741Z" fill="#FBBF11"/>
<path d="M27.1381 366.741C22.335 347.131 8.10446 323.08 -2.74315 310.681C-3.90991 309.347 -6 310.2 -6 311.972V401C-6 402.105 -5.10457 403 -4 403H147.291C148.109 403 148.865 402.509 149.05 401.713C150.285 396.415 147.294 387.065 126.552 366.741C98.3849 339.141 33.7657 393.8 27.1381 366.741Z" fill="#FBBF11"/>
<path d="M238 170C238 290.478 238 292 238 292" stroke="#FBBF11" stroke-width="5" stroke-linecap="round"/>
</svg>
