<svg width="393" height="280" viewBox="0 0 393 280" fill="none" xmlns="http://www.w3.org/2000/svg">
<path d="M155.124 31.0494V61.9884L128.272 77.4419L128.249 15.5799L155.124 31.0494Z" fill="black"/>
<path d="M235.75 77.4169L208.875 61.9873V31.0497L262.626 61.974L235.773 77.4302L235.75 77.4169Z" fill="#0499DB"/>
<path d="M101.373 92.9249L128.249 77.4554L155.124 61.9873V92.9236L182 77.4554L208.876 92.9249L182.022 108.38L155.126 123.86L101.373 92.9249Z" fill="#0499DB"/>
<path d="M182 46.5176V77.4552L155.124 92.9233V31.0494L208.876 0.111801V31.0228V61.987L182 46.5176Z" fill="#FBBF11"/>
<path d="M155.126 154.807V123.861L182 108.393L208.876 123.861L155.126 154.807Z" fill="#FBBF11"/>
<path d="M235.75 139.304L208.876 123.861L182 108.393L208.876 92.9245L182 77.455V46.5174L208.876 61.9869L235.773 77.4285L235.75 139.304Z" fill="black"/>
<path fill-rule="evenodd" clip-rule="evenodd" d="M82.8254 240.198C72.9696 240.198 66.6915 232.629 66.6915 222.656C66.6915 212.615 72.9696 205.116 82.8254 205.116C92.6079 205.116 98.9599 212.615 98.9599 222.656C98.9599 232.629 92.6079 240.198 82.8254 240.198ZM82.8254 247.766C97.3532 247.766 107.721 237.141 107.721 222.656C107.721 208.174 97.3532 197.549 82.8254 197.549C68.2243 197.549 57.9316 208.174 57.9316 222.656C57.9316 237.141 68.2243 247.766 82.8254 247.766Z" fill="#0499DB"/>
<path fill-rule="evenodd" clip-rule="evenodd" d="M141.438 247.766C151.22 247.766 157.279 242.599 161.002 236.777L153.702 233.138C151.366 237.141 146.619 240.198 141.438 240.198C131.799 240.198 124.646 232.775 124.646 222.656C124.646 212.395 131.799 205.116 141.438 205.116C146.619 205.116 151.366 208.1 153.702 212.177L160.93 208.392C157.351 202.571 151.22 197.549 141.438 197.549C127.055 197.549 115.884 207.664 115.884 222.656C115.884 237.576 127.055 247.766 141.438 247.766Z" fill="black"/>
<path fill-rule="evenodd" clip-rule="evenodd" d="M180.135 221.274V246.894H171.593V198.348H192.984C202.621 198.348 208.972 204.534 208.972 213.561C208.972 222.149 203.277 226.878 197.364 227.825L209.337 246.894H199.408L188.676 228.771L184.237 221.274H191.888C196.707 221.274 200.211 218.219 200.211 213.487C200.211 208.829 196.707 205.845 191.888 205.845H180.135V221.274Z" fill="black"/>
<path fill-rule="evenodd" clip-rule="evenodd" d="M286.662 208.16L271.914 246.894H262.206L281.334 198.348H291.992L311.119 246.894H301.41L286.662 208.16Z" fill="black"/>
<path fill-rule="evenodd" clip-rule="evenodd" d="M334.076 246.894V205.845H348.823V198.348H310.787V205.845H325.533V246.894H334.076Z" fill="black"/>
<path fill-rule="evenodd" clip-rule="evenodd" d="M221.316 246.894H254.68V239.397H229.857V226.37H254.168V218.872H229.857V218.364V205.845H254.68V198.348H221.316V246.894Z" fill="black"/>
<path fill-rule="evenodd" clip-rule="evenodd" d="M368.126 205.845H392.947V198.348H359.583V246.894H392.947V239.397H368.126V226.37H392.436V218.872H368.126V218.364V205.845Z" fill="black"/>
<path fill-rule="evenodd" clip-rule="evenodd" d="M49.55 218.91H24.8943V226.405H40.7095C39.3172 234.464 33.4068 240.198 24.8943 240.198C15.0385 240.198 8.75987 232.629 8.75987 222.656C8.75987 212.615 15.0385 205.116 24.8943 205.116C30.6063 205.116 35.1489 207.673 37.9407 211.799L45.3928 207.824C41.0319 201.482 33.7333 197.549 24.8943 197.549C10.2932 197.549 0 208.174 0 222.656C0 237.141 10.2932 247.766 24.8943 247.766C39.4229 247.766 49.7896 237.141 49.7896 222.656C49.7896 221.376 49.7084 220.126 49.55 218.91Z" fill="#0499DB"/>
<path d="M225.12 273.415L223.747 276.608H226.504L225.12 273.415ZM229.319 279.777H227.831L227.019 277.85H223.234L222.41 279.777H220.968L224.491 271.74H225.795L229.319 279.777Z" fill="#0499DB"/>
<path d="M243.264 279.777H241.56L238.825 276.186L237.58 277.463V279.777H236.173V271.797H237.58V275.81L241.388 271.797H243.116L239.787 275.227L243.264 279.777Z" fill="#0499DB"/>
<path d="M249.083 272.948C247.491 272.948 246.383 274.213 246.383 275.775C246.383 277.339 247.515 278.626 249.105 278.626C250.695 278.626 251.804 277.361 251.804 275.799C251.804 274.236 250.672 272.948 249.083 272.948ZM249.083 279.915C246.623 279.915 244.907 278.056 244.907 275.799C244.907 273.541 246.647 271.659 249.105 271.659C251.564 271.659 253.279 273.518 253.279 275.775C253.279 278.034 251.541 279.915 249.083 279.915Z" fill="#0499DB"/>
<path d="M259.268 279.915C256.935 279.915 255.196 278.101 255.196 275.799C255.196 273.518 256.9 271.659 259.326 271.659C260.8 271.659 261.694 272.173 262.459 272.903L261.555 273.94C260.915 273.347 260.23 272.948 259.314 272.948C257.78 272.948 256.671 274.201 256.671 275.775C256.671 277.349 257.78 278.626 259.314 278.626C260.298 278.626 260.926 278.227 261.612 277.588L262.516 278.502C261.68 279.367 260.766 279.915 259.268 279.915Z" fill="#0499DB"/>
<path d="M266.651 276.415V279.777H265.244V271.797H266.651V275.115H270.471V271.797H271.879V279.777H270.471V276.415H266.651Z" fill="#0499DB"/>
<path d="M283.136 279.915C280.803 279.915 279.064 278.101 279.064 275.799C279.064 273.518 280.768 271.659 283.193 271.659C284.668 271.659 285.561 272.173 286.327 272.903L285.423 273.94C284.783 273.347 284.097 272.948 283.183 272.948C281.648 272.948 280.539 274.201 280.539 275.775C280.539 277.349 281.648 278.626 283.183 278.626C284.165 278.626 284.795 278.227 285.48 277.588L286.384 278.502C285.549 279.367 284.633 279.915 283.136 279.915Z" fill="#0499DB"/>
<path d="M292.933 272.948C291.341 272.948 290.233 274.213 290.233 275.775C290.233 277.339 291.365 278.626 292.956 278.626C294.545 278.626 295.655 277.361 295.655 275.799C295.655 274.236 294.523 272.948 292.933 272.948ZM292.933 279.915C290.473 279.915 288.757 278.056 288.757 275.799C288.757 273.541 290.497 271.659 292.956 271.659C295.415 271.659 297.129 273.518 297.129 275.775C297.129 278.034 295.392 279.915 292.933 279.915Z" fill="#0499DB"/>
<path d="M299.631 271.797H301.038V278.502H305.246V279.777H299.631V271.797Z" fill="#0499DB"/>
<path d="M307.735 271.797H309.142V278.502H313.351V279.777H307.735V271.797Z" fill="#0499DB"/>
<path d="M319.305 273.415L317.932 276.608H320.688L319.305 273.415ZM323.501 279.777H322.015L321.203 277.85H317.417L316.593 279.777H315.153L318.675 271.74H319.98L323.501 279.777Z" fill="#0499DB"/>
<path d="M330.932 277.429C330.932 276.744 330.394 276.347 329.286 276.347H327.055V278.536H329.388C330.35 278.536 330.932 278.158 330.932 277.429ZM330.487 274.066C330.487 273.415 329.983 273.038 329.079 273.038H327.055V275.16H328.976C329.88 275.16 330.487 274.806 330.487 274.066ZM331.894 273.837C331.894 274.817 331.344 275.321 330.75 275.628C331.688 275.946 332.339 276.482 332.339 277.578C332.339 279.013 331.162 279.777 329.378 279.777H325.671V271.797H329.263C330.875 271.797 331.894 272.584 331.894 273.837Z" fill="#0499DB"/>
<path d="M338.544 272.948C336.954 272.948 335.846 274.213 335.846 275.775C335.846 277.339 336.978 278.626 338.568 278.626C340.158 278.626 341.267 277.361 341.267 275.799C341.267 274.236 340.135 272.948 338.544 272.948ZM338.544 279.915C336.086 279.915 334.37 278.056 334.37 275.799C334.37 273.541 336.11 271.659 338.568 271.659C341.027 271.659 342.742 273.518 342.742 275.775C342.742 278.034 341.004 279.915 338.544 279.915Z" fill="#0499DB"/>
<path d="M348.697 273.074H346.649V275.753H348.708C349.713 275.753 350.355 275.227 350.355 274.407C350.355 273.529 349.737 273.074 348.697 273.074ZM350.377 279.777L348.411 276.995H346.649V279.777H345.243V271.797H348.809C350.652 271.797 351.784 272.766 351.784 274.328C351.784 275.651 350.995 276.448 349.875 276.756L352.036 279.777H350.377Z" fill="#0499DB"/>
<path d="M358.231 273.415L356.857 276.608H359.615L358.231 273.415ZM362.429 279.777H360.941L360.129 277.85H356.344L355.52 279.777H354.079L357.601 271.74H358.905L362.429 279.777Z" fill="#0499DB"/>
<path d="M367.296 279.777H365.877V273.095H363.34V271.797H369.836V273.095H367.296V279.777Z" fill="#0499DB"/>
<path d="M374.063 271.797V279.777H372.656V271.797H374.063Z" fill="#0499DB"/>
<path d="M383.141 271.797H384.663L381.333 279.834H380.099L376.772 271.797H378.327L380.74 277.931L383.141 271.797Z" fill="#0499DB"/>
<path d="M392.768 273.05H388.239V275.127H392.255V276.38H388.239V278.523H392.825V279.777H386.832V271.797H392.768V273.05Z" fill="#0499DB"/>
</svg>
